<svg width="38" height="38" viewBox="0 0 38 38" fill="none" xmlns="http://www.w3.org/2000/svg">
<path d="M34.8333 15.8333C33.3045 15.8333 32.0251 16.9233 31.7306 18.3667H28.5V14.5667C28.5 14.3399 28.3784 14.1297 28.1808 14.0169L26.0794 12.8161L30.5564 8.3391C31.0574 8.67097 31.6559 8.86667 32.3 8.86667C34.0461 8.86667 35.4667 7.4461 35.4667 5.7C35.4667 3.9539 34.0461 2.53333 32.3 2.53333C30.5539 2.53333 29.1333 3.9539 29.1333 5.7C29.1333 6.3441 29.329 6.9426 29.6609 7.44357L24.9394 12.1651L19.6333 9.13267V6.26937C21.0767 5.97487 22.1667 4.69617 22.1667 3.16667C22.1667 1.42057 20.7461 0 19 0C17.2539 0 15.8333 1.42057 15.8333 3.16667C15.8333 4.69553 16.9233 5.97487 18.3667 6.26937V9.13267L13.0606 12.1651L8.3391 7.44357C8.67097 6.9426 8.86667 6.3441 8.86667 5.7C8.86667 3.9539 7.4461 2.53333 5.7 2.53333C3.9539 2.53333 2.53333 3.9539 2.53333 5.7C2.53333 7.4461 3.9539 8.86667 5.7 8.86667C6.3441 8.86667 6.9426 8.67097 7.44357 8.3391L11.9206 12.8161L9.8192 14.0169C9.6216 14.1297 9.5 14.3399 9.5 14.5667V18.3667H6.26937C5.97487 16.9233 4.69553 15.8333 3.16667 15.8333C1.42057 15.8333 0 17.2539 0 19C0 20.7461 1.42057 22.1667 3.16667 22.1667C4.69553 22.1667 5.97487 21.0767 6.26937 19.6333H9.5V23.4333C9.5 23.6601 9.6216 23.8703 9.8192 23.9831L11.9206 25.1839L7.44357 29.6609C6.9426 29.329 6.3441 29.1333 5.7 29.1333C3.9539 29.1333 2.53333 30.5539 2.53333 32.3C2.53333 34.0461 3.9539 35.4667 5.7 35.4667C7.4461 35.4667 8.86667 34.0461 8.86667 32.3C8.86667 31.6559 8.67097 31.0574 8.3391 30.5564L13.0606 25.8349L18.3667 28.8673V31.7306C16.9233 32.0251 15.8333 33.3038 15.8333 34.8333C15.8333 36.5794 17.2539 38 19 38C20.7461 38 22.1667 36.5794 22.1667 34.8333C22.1667 33.3045 21.0767 32.0251 19.6333 31.7306V28.8673L24.9394 25.8349L29.6609 30.5564C29.329 31.0574 29.1333 31.6559 29.1333 32.3C29.1333 34.0461 30.5539 35.4667 32.3 35.4667C34.0461 35.4667 35.4667 34.0461 35.4667 32.3C35.4667 30.5539 34.0461 29.1333 32.3 29.1333C31.6559 29.1333 31.0574 29.329 30.5564 29.6609L26.0794 25.1839L28.1808 23.9831C28.3784 23.8703 28.5 23.6601 28.5 23.4333V19.6333H31.7306C32.0251 21.0767 33.3038 22.1667 34.8333 22.1667C36.5794 22.1667 38 20.7461 38 19C38 17.2539 36.5794 15.8333 34.8333 15.8333ZM32.3 3.8C33.3475 3.8 34.2 4.65247 34.2 5.7C34.2 6.74753 33.3475 7.6 32.3 7.6C31.2525 7.6 30.4 6.74753 30.4 5.7C30.4 4.65247 31.2525 3.8 32.3 3.8ZM5.7 7.6C4.65247 7.6 3.8 6.74753 3.8 5.7C3.8 4.65247 4.65247 3.8 5.7 3.8C6.74753 3.8 7.6 4.65247 7.6 5.7C7.6 6.74753 6.74753 7.6 5.7 7.6ZM3.16667 20.9C2.11913 20.9 1.26667 20.0475 1.26667 19C1.26667 17.9525 2.11913 17.1 3.16667 17.1C4.2142 17.1 5.06667 17.9525 5.06667 19C5.06667 20.0475 4.2142 20.9 3.16667 20.9ZM5.7 34.2C4.65247 34.2 3.8 33.3475 3.8 32.3C3.8 31.2525 4.65247 30.4 5.7 30.4C6.74753 30.4 7.6 31.2525 7.6 32.3C7.6 33.3475 6.74753 34.2 5.7 34.2ZM32.3 30.4C33.3475 30.4 34.2 31.2525 34.2 32.3C34.2 33.3475 33.3475 34.2 32.3 34.2C31.2525 34.2 30.4 33.3475 30.4 32.3C30.4 31.2525 31.2525 30.4 32.3 30.4ZM17.1 3.16667C17.1 2.11913 17.9525 1.26667 19 1.26667C20.0475 1.26667 20.9 2.11913 20.9 3.16667C20.9 4.2142 20.0475 5.06667 19 5.06667C17.9525 5.06667 17.1 4.2142 17.1 3.16667ZM20.9 34.8333C20.9 35.8809 20.0475 36.7333 19 36.7333C17.9525 36.7333 17.1 35.8809 17.1 34.8333C17.1 33.7858 17.9525 32.9333 19 32.9333C20.0475 32.9333 20.9 33.7858 20.9 34.8333ZM27.2333 23.066L19 27.771L10.7667 23.066V14.934L19 10.229L27.2333 14.934V23.066ZM34.8333 20.9C33.7858 20.9 32.9333 20.0475 32.9333 19C32.9333 17.9525 33.7858 17.1 34.8333 17.1C35.8809 17.1 36.7333 17.9525 36.7333 19C36.7333 20.0475 35.8809 20.9 34.8333 20.9Z" fill="#02E602"/>
</svg>
