<svg width="793" height="627" viewBox="0 0 793 627" fill="none" xmlns="http://www.w3.org/2000/svg">
<g filter="url(#filter0_i_1_96)">
<path d="M167.488 517.534C166.074 520.195 166.605 523.566 164.837 525.872C164.131 526.759 163.247 527.292 162.187 527.646C160.42 528.179 158.476 528.001 156.709 528.179C152.644 528.179 149.64 529.065 146.282 531.549C143.278 533.678 140.628 536.162 138.33 539C137.447 537.936 136.563 536.871 135.68 535.807C133.382 533.146 131.439 530.13 129.495 527.114C127.904 524.63 126.491 522.679 124.547 520.728C123.31 519.308 122.249 517.889 121.366 516.115C119.422 512.567 118.008 509.019 117.125 505.116C115.888 499.262 115.004 493.23 112.707 487.553C112.53 487.021 112.353 486.666 112 486.134C112.707 484.715 113.59 483.473 113.59 483.296C115.004 480.812 116.948 478.506 118.538 476.2C119.245 475.135 119.952 473.894 121.189 473.184C122.249 472.474 123.486 472.474 124.723 472.474C127.904 472.474 130.025 471.942 132.499 469.991C134.443 468.749 137.093 466.975 139.214 468.749C141.335 470.345 140.804 473.716 140.804 476.022C140.804 479.038 140.451 482.231 141.511 485.247C142.041 487.021 143.278 488.973 144.339 490.569C145.929 493.053 148.58 490.924 150.347 489.682C153.174 487.908 156.532 485.425 157.946 482.231C159.006 479.748 161.126 476.2 164.131 476.2C167.842 476.2 165.898 483.828 165.721 485.957C165.544 489.505 167.311 491.989 169.255 494.827C170.316 496.424 171.553 498.02 172.966 499.439C174.203 500.504 175.794 501.568 176.677 502.81C181.979 508.842 169.785 513.277 167.488 517.534Z" fill="#01B601" stroke="#181818"/>
<path d="M702.667 394.82C701.959 394.82 701.427 395.173 700.541 395.704C697.352 398.179 695.226 401.716 692.746 404.722C690.797 407.197 689.202 407.904 686.013 407.904C682.292 407.904 678.572 408.081 675.914 411.264C672.902 414.977 673.434 419.751 672.725 424.172C672.371 426.117 671.485 428.062 669.713 429.123C666.701 431.068 663.158 430.007 659.791 429.3C655.716 428.593 650.401 430.184 647.035 432.306C645.086 433.544 643.846 435.489 642.074 436.903C639.593 439.025 635.696 439.202 633.747 436.196C633.038 435.312 632.329 433.72 630.912 433.72C629.849 433.72 629.14 434.781 628.786 435.665C628.077 437.964 628.432 440.44 627.368 442.738C626.483 444.507 624.711 445.744 623.471 447.159C621.699 449.104 620.636 449.458 618.155 449.458C615.143 449.458 613.195 451.403 610.36 451.933C606.993 452.64 604.513 449.811 601.324 450.165C598.312 450.518 597.072 453.878 594.946 456C594.237 455.47 593.174 455.293 591.756 455.293C591.402 455.293 590.871 455.293 590.516 455.116C590.516 452.994 591.402 450.342 591.579 449.458C592.111 446.452 591.579 443.446 590.516 440.616C589.453 437.964 589.099 435.135 588.213 432.306C587.859 431.422 587.504 430.538 587.15 429.653C586.796 428.239 586.973 427.001 586.973 425.763C586.973 424.172 586.441 422.581 585.91 421.166C585.378 419.398 586.087 417.63 586.618 415.861C587.327 413.916 588.036 411.618 586.973 409.673C586.087 407.904 584.138 407.374 582.898 405.782C581.835 404.368 582.721 402.953 583.606 401.716C584.492 399.947 585.555 398.179 585.201 396.234C584.847 394.289 583.429 392.874 581.835 391.814C580.417 390.929 578.823 389.869 579.177 387.924C579.709 385.802 581.835 384.21 582.721 382.088C583.606 379.966 582.543 378.552 580.949 377.137C579.531 375.723 579 374.485 579 372.54C579 372.009 579 371.656 579 371.125C579 371.125 579 369.357 582.189 368.119C585.378 366.882 589.099 367.235 586.087 365.113C583.075 363.168 581.48 361.4 582.012 355.919C582.543 350.437 586.618 339.297 592.465 339.474C598.135 339.651 600.438 340.182 600.438 343.364C600.438 346.547 602.387 349.907 603.45 346.37C604.513 342.834 608.765 337.352 611.954 339.474C615.143 341.773 617.27 344.425 618.864 344.425C620.459 344.425 626.128 343.364 621.876 348.315C617.624 353.266 604.513 367.766 611.068 365.29C617.801 362.815 615.675 374.839 616.915 372.186C618.155 369.534 631.266 385.625 619.75 367.943C608.234 350.26 631.089 349.907 633.392 356.98C635.696 364.053 642.605 365.644 645.086 361.931C647.389 358.217 651.464 354.681 656.248 352.559C660.5 350.791 664.221 343.187 665.461 344.248C665.461 344.248 665.461 344.248 665.638 344.425C665.815 344.602 665.815 344.779 665.992 345.133C666.878 349.023 670.776 357.333 677.332 357.156C683.887 356.98 688.671 358.041 690.088 361.577C691.505 365.113 690.265 366.174 692.568 368.296C694.872 370.418 696.112 371.479 695.58 374.662C695.049 377.668 694.34 382.619 697.352 384.741C700.719 386.686 704.085 389.692 702.667 394.82Z" fill="#01B601" stroke="#181818"/>
<path d="M369.557 48.6209C365.465 53.3953 360.305 58.8771 363.33 63.4747C366.354 68.0722 369.023 70.1942 363.686 74.4381C363.152 74.9686 362.44 75.4991 361.906 76.2064C357.637 80.9808 354.612 88.5845 350.164 88.054C345.183 87.5235 335.576 79.0357 335.22 84.6943C334.864 90.3528 335.042 92.1211 332.018 92.4748C328.993 93.0053 323.656 90.7065 320.987 100.255C319.03 99.1943 317.251 100.432 315.116 102.554C306.933 110.865 305.154 95.1272 300.35 97.6028C298.749 98.487 298.215 100.963 297.148 102.731C298.037 98.487 297.148 94.9504 301.417 91.0601C305.687 87.3467 307.822 84.8711 306.577 79.0357C305.509 73.7308 301.773 70.9015 298.571 66.6576C293.767 60.2917 289.32 53.2185 282.559 48.7977C277.756 45.438 268.326 46.6758 269.038 38.8953C269.394 34.8282 270.283 30.4074 272.063 26.694C273.486 23.8647 275.443 20.3281 277.934 18.2062C280.958 15.7305 284.872 15.5537 288.252 13.7854C294.123 10.6025 296.792 -4.07445 305.687 2.82192C308.712 5.12071 310.491 9.01097 311.558 12.5476C312.626 15.9073 312.092 21.0354 314.405 23.6879C318.675 28.6391 332.374 24.572 337.533 22.8037C337.889 21.5659 338.423 20.3281 338.956 19.0903C344.293 23.3342 351.766 27.0476 357.637 29.3464C361.373 30.7611 364.397 30.5843 367.422 29.7001C367.777 30.0538 373.648 43.8465 369.557 48.6209Z" fill="#01B601" stroke="#181818"/>
<path d="M347.664 211.943C344.306 211.766 337.768 209.108 338.651 213.892C339.712 218.676 345.897 222.398 341.656 227.182C337.238 231.966 331.936 230.194 331.053 235.51C330.169 240.826 331.23 242.598 327.695 244.015C324.338 245.61 322.217 246.142 319.567 252.521C317.093 258.545 320.804 262.444 304.193 269C302.072 264.57 298.715 262.089 298.185 256.774C297.478 250.749 297.654 246.673 292.707 242.598C288.112 238.877 286.875 233.915 287.229 228.068C287.582 222.043 293.944 220.626 295.534 215.31C297.124 209.994 289.172 206.982 285.285 205.918C279.807 204.501 273.975 205.032 271.501 198.653C269.381 193.16 270.618 186.958 268.674 181.465C266.553 175.441 263.019 171.72 264.256 164.809C265.67 155.772 271.678 159.493 277.863 156.304C278.923 155.772 279.983 154.886 280.69 154C281.574 154.354 282.457 154.709 283.341 155.063C293.59 159.67 302.072 166.758 311.791 172.074C317.093 174.909 322.924 176.327 328.402 178.453C333.88 180.579 336.708 184.655 339.182 189.794C340.595 192.629 342.716 200.071 346.603 200.957C346.603 201.134 351.198 212.12 347.664 211.943Z" fill="#01B601" stroke="#181818"/>
<path d="M367.705 186.678C366.459 189.33 360.584 191.098 358.269 192.866C355.599 194.988 351.504 201 347.766 201C347.588 201 347.232 201 347.054 200.823C343.137 199.939 341.001 192.513 339.576 189.684C337.084 184.556 334.236 180.489 328.717 178.367C323.02 176.245 317.323 174.831 311.982 172.002C302.19 166.697 293.645 159.624 283.319 155.027C282.429 154.673 281.539 154.319 280.649 153.966C283.141 150.606 283.675 145.655 284.031 141.765C284.565 136.461 282.251 132.04 280.471 127.089C279.402 124.26 278.156 121.785 276.02 119.663C274.418 118.071 271.213 116.303 271.035 114.004C270.323 107.993 280.649 108.346 284.209 109.054C288.482 109.761 294.357 110.999 296.315 105.871C296.671 104.987 296.849 104.103 297.027 103.395C298.274 101.627 298.808 98.9748 300.232 98.2675C305.039 95.792 306.819 111.529 315.008 103.218C317.145 101.097 318.925 99.8589 320.883 100.92C321.595 101.273 322.308 101.804 323.02 102.688C326.046 106.224 326.758 106.932 331.387 107.993C335.66 108.877 335.482 111.706 334.592 115.419C333.523 119.132 333.345 120.9 336.906 122.845C339.932 124.614 343.671 125.498 346.163 127.796C353.819 134.339 348.3 146.893 346.342 154.85C345.273 159.447 344.027 164.575 347.766 168.288C350.614 171.294 354.709 173.062 358.269 175.361C359.516 176.068 360.762 176.952 361.83 177.837C363.61 179.251 367.171 181.903 367.883 184.556C368.061 185.263 368.061 185.97 367.705 186.678Z" fill="#01B601" stroke="#181818"/>
<path d="M431.948 289.11C431.592 289.641 431.237 290.349 431.059 291.057C430.347 293.357 431.059 295.834 430.703 298.312C430.347 300.612 428.747 301.851 426.968 302.912C425.723 303.797 424.478 304.505 423.767 305.744C413.451 307.336 407.937 300.789 402.957 299.373C397.977 297.781 394.775 290.349 384.993 284.863C375.211 279.378 376.278 290.703 373.077 296.542C370.053 302.382 356.18 301.32 356.18 301.32C345.508 302.912 334.837 311.229 323.987 306.628C320.075 305.036 316.695 302.028 312.96 299.904C309.581 297.958 306.024 296.011 303 293.711C305.312 290.703 305.134 287.518 305.49 282.74C305.846 277.962 306.735 272.83 304.601 268.407C304.601 268.407 304.601 268.407 304.601 268.23C321.142 261.682 317.407 257.789 320.074 251.773C322.742 245.403 324.877 244.695 328.256 243.279C331.813 241.687 330.746 239.917 331.635 234.786C332.525 229.477 337.86 231.246 342.307 226.469C346.753 221.691 340.35 217.975 339.283 213.197C338.216 208.42 344.797 211.074 348.354 211.251C351.911 211.428 347.287 200.457 347.287 200.457C347.465 200.457 347.821 200.457 347.998 200.634C351.733 200.811 355.824 194.617 358.492 192.494C360.804 190.724 366.496 188.955 367.919 186.3C368.274 185.593 368.274 184.708 368.097 184C368.452 184 376.278 184.354 380.013 191.786C383.748 199.218 392.108 206.296 391.396 210.72C390.507 215.144 390.685 221.868 394.064 223.638C396.554 225.053 404.558 232.308 408.115 237.263C409.538 239.386 410.249 241.156 409.36 242.041C406.514 244.695 401.356 251.773 406.692 255.666C411.672 259.382 433.193 279.909 431.948 289.11Z" fill="#01B601" stroke="#181818"/>
<path d="M201.824 401.269C200.582 396.302 203.598 391.158 205.727 386.9C207.856 382.465 210.516 377.321 209.097 372.177C207.856 367.387 203.598 364.372 199.873 361.534C196.502 358.873 193.132 356.212 192.245 351.777C191.18 346.81 192.067 341.666 191.18 336.699C190.825 336.344 190.293 336.167 189.938 335.99C188.165 335.457 186.923 336.877 185.504 337.586C183.907 338.296 182.133 339.183 180.359 338.296C179.117 337.586 179.117 335.99 178.23 334.925C175.215 330.491 172.376 325.169 168.119 321.976C167.232 321.266 165.635 320.379 164.748 321.621C163.684 323.04 164.571 324.991 164.571 326.411C164.571 328.184 163.152 329.249 162.087 330.491C161.378 331.2 160.846 331.732 160.136 332.442C159.604 332.974 159.072 333.506 158.717 334.216C158.185 335.457 159.781 336.522 160.491 337.409C161.555 338.473 161.91 339.36 161.732 340.956C161.378 342.908 160.845 345.036 160.491 346.988C159.781 350.003 161.023 353.374 159.604 356.389C158.539 356.035 157.83 355.502 157.475 354.438C157.12 353.196 156.765 351.777 156.588 350.535C156.588 349.826 156.588 349.294 156.765 348.584C156.943 348.229 157.12 347.697 157.12 347.165C156.943 346.278 155.524 346.456 154.991 346.456C153.75 346.81 152.863 347.697 151.798 348.407C150.557 349.294 148.96 350.003 147.541 350.358C146.654 350.535 144.88 351.068 144.17 350.003C143.638 349.116 144.17 348.052 143.815 347.165C143.106 345.923 141.687 346.278 141.155 347.342C140.445 348.584 139.913 349.294 138.494 349.648C137.074 350.003 136.01 349.649 134.768 348.939C133.881 348.584 132.994 348.052 132.107 347.697C130.866 347.165 129.979 347.52 129.446 348.762C128.914 349.648 128.205 350.713 127.14 350.713C126.076 350.713 125.544 350.535 124.657 351.245C123.06 352.664 122.705 355.502 120.754 356.389C119.69 356.921 118.98 356.567 118.093 355.857C117.383 355.325 116.496 355.325 115.787 354.793C114.545 353.728 114.9 351.6 114.013 350.181C113.658 349.471 112.239 348.762 111.352 349.116C110.288 349.471 110.642 351.068 109.755 351.6C108.159 352.487 108.336 350.003 108.691 349.294C109.046 348.052 108.691 347.52 108.336 346.101C107.981 344.859 107.449 343.972 106.03 343.795C105.32 343.795 104.788 343.795 104.256 343.617C103.369 343.263 102.482 342.73 101.595 342.198C100.708 341.843 99.8212 341.666 100.176 340.602C100.531 339.715 101.595 338.65 102.305 337.941C104.433 335.457 104.788 331.91 101.063 330.668C98.5794 329.958 95.5637 329.426 93.0801 330.313C91.8383 330.668 90.5966 331.732 89.887 332.797C88.4678 335.28 90.0644 338.473 90.2418 340.956C90.4192 342.376 90.5966 343.795 91.3062 345.036C91.8383 346.101 92.3705 346.988 92.5479 348.229C93.0801 350.89 91.4835 353.374 90.2418 355.502C89.7096 356.567 89.3548 357.808 89.3548 358.873C89.5322 360.114 90.5966 360.647 90.9514 361.711C91.3062 362.775 90.9514 364.194 90.4192 365.081C89.887 365.968 89.5322 366.5 89.5322 367.565C89.5322 368.629 89 369.516 89 370.58C89 371.645 89.5322 372.709 89.7096 373.773C89.887 375.547 90.0644 377.321 89.887 379.095C89.7096 380.514 89.7096 382.111 89.5322 383.53C89.3548 385.658 89.3548 387.787 90.0644 389.916C90.774 392.044 90.774 394.351 90.9514 396.657C90.9514 398.43 91.4835 400.204 91.6609 401.978C91.8383 403.575 91.8383 404.994 92.1931 406.413C92.5479 408.896 93.4349 411.38 93.6123 413.863C93.9671 418.83 94.4993 423.442 95.3863 428.409C95.9185 431.602 95.5637 434.973 95.3863 438.166C95.3863 440.649 94.8541 442.955 94.4993 445.439C94.3219 446.68 93.9671 447.745 93.7897 448.809C93.6123 450.051 93.2575 451.47 93.0801 452.712C93.0801 454.131 93.6123 455.372 93.4349 456.791C93.4349 457.324 93.0801 457.856 93.0801 458.388C92.9027 459.275 93.0801 460.694 93.2575 461.581C93.4349 462.291 94.1445 463 94.4993 463.532C95.9185 465.306 97.1602 467.257 98.402 469.209C99.8212 471.337 101.773 473.111 103.724 474.708C105.853 476.482 107.449 478.61 108.868 480.916C109.933 482.69 110.997 484.464 111.884 486.415C112.594 484.996 113.481 483.755 113.481 483.577C114.9 481.094 116.851 478.788 118.448 476.482C119.157 475.417 119.867 474.176 121.109 473.466C122.173 472.756 123.415 472.756 124.657 472.756C127.85 472.756 129.979 472.224 132.462 470.273C134.413 469.031 137.074 467.257 139.203 469.031C141.332 470.628 140.8 473.998 140.8 476.304C140.8 479.32 140.445 482.513 141.509 485.528C142.041 487.302 143.283 489.254 144.348 490.85C145.944 493.334 148.605 491.205 150.379 489.963C153.217 488.189 156.588 485.706 158.007 482.513C159.072 480.029 161.2 476.482 164.216 476.482C164.393 471.337 164.926 460.694 167.232 464.597C170.248 469.741 176.634 468.144 177.521 463C178.23 457.678 185.681 453.598 185.149 447.745C184.794 441.891 179.472 432.134 185.149 428.054C190.825 424.152 189.938 421.314 193.132 424.329C196.147 427.167 199.163 438.343 208.743 428.232C208.388 427.7 208.033 427.345 207.678 426.813C205.195 422.733 208.565 423.442 210.516 420.427C211.936 418.475 212.645 414.75 213 412.444C208.742 409.783 203.243 406.59 201.824 401.269ZM158.007 441.536C157.652 445.439 155.701 449.341 154.282 452.889C152.33 457.501 149.137 461.758 144.17 462.823C142.574 463.177 140.09 463.177 139.026 461.758C137.961 460.339 138.494 458.388 139.203 456.791C139.735 455.195 144.17 448.099 141.509 446.858C138.671 445.616 134.236 453.066 132.817 454.663C129.979 457.856 126.253 458.033 122.705 459.984C119.512 461.581 117.029 465.306 113.481 466.37C110.465 467.257 108.514 464.419 108.159 461.936C107.804 459.984 108.514 458.033 108.336 456.082C108.159 454.84 107.804 453.598 107.627 452.179C107.272 449.696 107.094 446.326 109.578 444.729C112.594 442.778 117.383 444.552 120.754 443.842C124.302 442.955 126.963 439.94 129.979 438.166C133.704 435.86 137.961 433.553 138.316 428.587C138.848 422.91 133.704 420.427 129.801 417.589C125.544 414.573 124.657 410.316 123.06 405.526C121.996 402.333 119.335 399.85 118.803 396.657C118.448 394.351 118.625 391.867 119.157 389.561C119.335 388.497 119.867 385.658 121.464 385.481C122.883 385.304 124.302 387.965 125.011 389.029C126.431 391.335 127.85 393.464 129.446 395.77C131.93 399.672 133.881 403.93 136.365 407.832C139.026 412.089 143.106 412.976 147.363 414.75C152.508 416.702 154.104 421.846 155.524 426.635C156.588 431.247 158.539 436.569 158.007 441.536Z" fill="#01B601" stroke="#181818"/>
<path d="M271.05 566.494C267.681 565.785 264.312 566.671 260.944 566.317C256.688 565.785 251.547 563.306 247.469 565.254C243.036 567.379 248.355 571.453 249.064 574.11C250.837 579.778 242.859 578.716 240.022 577.121C237.54 575.704 230.448 569.682 228.143 574.464C226.37 578.361 233.462 580.31 234.348 583.321C235.235 586.332 231.334 588.812 232.221 591.291C232.398 591.469 232.398 591.823 232.575 592C222.824 591.469 221.051 585.801 220.873 585.446C221.76 584.561 222.114 583.498 221.583 582.258C220.873 580.841 218.391 580.31 217.15 579.778C215.2 578.893 213.427 577.653 211.831 575.881C208.994 572.693 207.398 568.974 206.512 564.9C206.335 563.837 205.803 560.294 204.562 560.117C204.384 553.387 196.583 554.095 190.2 553.741C183.995 553.209 178.853 547.541 177.08 544.353C175.129 541.165 179.562 534.434 177.08 529.475C174.598 524.338 169.101 528.589 165.378 529.297C161.654 530.006 162.009 527.88 162.009 527.88C163.073 527.526 163.959 526.995 164.669 526.109C166.442 523.806 165.91 520.264 167.328 517.784C169.456 513.71 181.69 509.105 176.902 502.906C175.839 501.666 174.243 500.603 173.179 499.54C171.761 498.123 170.52 496.706 169.456 494.935C167.505 492.101 165.732 489.621 165.91 486.079C166.087 483.953 168.037 476.514 164.314 476.337C164.491 471.2 165.023 460.573 167.328 464.469C170.342 469.606 176.725 468.012 177.612 462.875C178.321 457.561 185.768 453.487 185.236 447.642C184.881 441.797 179.562 432.055 185.236 427.981C190.909 424.085 190.023 421.251 193.214 424.262C196.228 427.096 199.242 438.255 208.817 428.158C210.235 430.107 212.008 432.055 213.781 433.295C215.909 434.712 218.214 435.421 219.1 438.077C219.278 438.432 219.278 438.786 219.278 439.14C219.632 441.62 218.746 444.277 219.987 446.934C222.469 452.425 229.206 449.236 233.639 451.008C233.639 454.019 231.157 455.259 230.802 457.738C230.27 460.927 232.93 459.864 235.235 460.218C237.717 460.395 240.199 460.75 242.859 460.927C243.391 460.927 243.923 460.927 244.277 460.927C245.873 461.458 247.469 461.99 249.242 462.521C251.192 463.052 254.383 463.229 253.674 466.063C252.965 468.366 252.078 469.783 252.433 472.263C252.788 474.388 253.497 476.514 254.383 478.462C261.121 493.341 262.362 493.518 261.475 500.249C260.589 507.157 259.348 521.858 264.135 528.589C268.745 535.497 285.943 557.283 271.05 566.494Z" fill="#01B601" stroke="#181818"/>
<path d="M591.788 450.067C591.611 450.954 590.726 453.794 590.726 455.746C588.423 455.214 587.184 453.617 585.059 452.197C582.58 450.777 579.392 450.599 576.736 451.664C574.611 452.552 573.548 454.681 571.423 455.569C567.528 457.344 561.33 454.681 558.319 452.197C555.84 449.889 553.007 447.582 549.465 446.872C545.215 445.985 543.09 449.002 540.611 451.664C536.715 455.924 531.048 453.439 526.621 450.777C521.486 447.582 517.236 445.452 511.392 448.469C509.444 449.357 507.142 450.777 506.611 452.907C506.079 454.681 506.611 456.811 506.433 458.586C505.902 463.911 504.486 468.348 499.704 471.01C498.288 471.898 496.871 473.14 495.454 473.673C493.329 474.56 489.611 473.495 487.84 472.253C486.246 471.365 485.892 469.768 485.715 467.993C485.361 464.266 486.423 460.716 486.6 457.166C487.131 451.664 489.079 440.483 484.298 436.223C480.933 433.206 475.975 435.513 472.61 437.288C472.433 437.288 472.433 437.465 472.256 437.465C472.788 435.335 473.673 433.206 475.09 431.608C476.683 429.833 479.34 428.058 478.454 425.219C477.215 421.846 473.496 420.604 472.788 416.877C472.079 413.15 473.142 409.245 472.433 405.518C471.548 401.258 468.36 403.388 465.35 403.388C463.402 403.388 461.1 401.968 460.215 400.193C459.86 399.306 460.038 398.241 460.038 397.176C460.038 395.933 459.86 394.513 459.329 393.449C458.621 391.674 457.027 391.674 455.433 391.141C454.371 390.786 452.777 390.431 451.892 389.721C451.537 389.366 451.36 388.834 451.183 388.479C450.652 387.769 450.121 387.591 449.59 387.059C447.819 385.817 447.287 384.574 447.465 382.444C447.465 381.024 446.756 379.25 447.11 377.83C447.465 376.232 448.881 375.345 449.767 373.925C450.829 372.328 451.715 370.908 452.954 369.488C453.84 368.423 454.902 367.535 455.965 366.648C457.027 365.583 457.381 364.341 458.267 363.098C458.975 361.856 460.215 361.146 461.1 360.081C462.34 358.484 462.34 356.354 462.162 354.401C461.454 350.319 458.267 348.189 456.85 344.64C455.61 341.445 454.725 336.653 451.36 334.878C449.767 333.99 447.996 334.7 446.402 334.878C444.454 335.055 443.746 335.233 442.329 336.298C440.027 337.895 440.027 332.748 439.673 331.683C439.319 330.618 438.964 329.553 438.61 328.488C438.433 327.423 438.079 325.826 436.839 325.649C435.246 325.294 432.944 327.601 431.527 328.133C430.11 328.666 427.631 329.376 426.923 327.423C426.392 325.471 427.985 322.986 428.517 321.211C429.048 319.437 429.402 317.307 428.339 315.709C427.454 314.289 425.86 313.579 424.798 312.337C423.558 311.095 422.85 309.32 423.027 307.545C423.027 307.012 423.381 306.48 423.558 306.125C424.267 304.883 425.683 303.995 426.746 303.285C428.517 302.043 430.11 300.8 430.464 298.671C430.819 296.186 430.287 293.878 430.819 291.394C430.996 290.684 431.35 289.974 431.704 289.441C433.475 286.424 437.371 285.004 440.735 284.294C444.985 283.229 449.412 282.342 452.954 279.502C455.787 277.195 457.912 274.71 461.454 273.467C463.048 272.935 465.173 272.58 466.412 274C466.59 274.177 466.767 274.355 466.767 274.532C467.475 276.13 466.59 278.082 466.058 279.502C464.642 282.164 462.694 284.472 461.808 287.311C461.454 288.554 461.454 290.151 462.871 290.861C464.287 291.571 465.881 290.329 467.298 290.684C469.954 291.394 472.079 294.588 474.027 296.186C476.86 298.493 478.985 301.155 482.35 302.753C483.767 303.463 484.829 303.285 486.246 302.753C487.663 302.043 489.079 301.688 490.496 302.575C491.913 303.463 493.152 305.593 494.038 307.19C494.923 308.787 495.277 310.74 495.454 312.515C495.631 315.354 497.579 318.727 500.767 319.082C502.715 319.259 504.663 318.727 506.433 318.904C508.204 319.259 509.975 319.969 511.392 320.856C512.809 321.744 514.225 322.809 514.756 324.584C515.288 326.358 515.465 328.133 515.996 329.908C517.059 333.103 522.371 333.458 524.85 331.861C526.621 330.796 530.34 327.423 532.465 328.666C534.59 329.908 535.652 332.571 537.246 334.523C538.132 335.588 539.371 336.475 540.257 337.718C540.965 338.605 541.496 339.848 542.027 340.912C542.559 341.977 542.913 342.865 543.267 343.93C544.33 346.415 545.038 349.254 546.277 351.562C547.517 353.869 549.642 355.466 551.767 356.531C553.361 357.419 554.955 357.596 556.725 356.886C558.142 356.176 559.913 354.934 561.684 355.289C563.278 355.644 563.809 357.596 564.517 359.016C565.58 360.968 566.996 362.211 568.944 363.276C571.778 364.696 575.673 364.341 577.975 366.826C578.153 367.003 578.33 367.18 578.507 367.535C578.507 367.713 578.684 367.713 578.684 367.89C578.684 368.068 578.861 368.068 578.861 368.245C578.861 368.245 578.861 368.423 579.038 368.423C579.215 368.6 579.215 368.955 579.215 369.133C579.215 369.31 579.215 369.31 579.215 369.488C579.392 370.02 579.392 370.73 579.392 371.263C579.392 371.618 579.392 372.15 579.392 372.683C579.392 374.812 579.923 375.877 581.34 377.297C582.757 378.717 583.819 380.137 583.111 382.267C582.226 384.397 580.1 385.994 579.569 388.124C579.215 390.076 580.986 390.964 582.226 392.029C583.819 393.094 585.236 394.513 585.59 396.466C585.944 398.418 584.882 400.37 583.996 401.968C583.288 403.388 582.403 404.63 583.288 406.05C584.35 407.647 586.298 408.18 587.361 409.955C588.423 411.907 587.715 414.214 587.007 416.167C586.475 417.942 585.767 419.717 586.298 421.491C586.653 422.911 587.361 424.509 587.361 426.106C587.361 427.526 587.184 428.768 587.538 430.011C587.715 430.898 588.246 431.786 588.6 432.673C589.486 435.513 589.84 438.353 590.903 441.015C591.788 444.032 592.319 447.05 591.788 450.067Z" fill="#01B601" stroke="#181818"/>
<path d="M475.445 431.748C474.022 433.346 473.133 435.476 472.6 437.607C467.266 440.447 462.287 442.577 455.886 442.045C451.619 441.69 444.329 437.607 440.417 440.092C435.617 442.932 438.639 452.164 438.461 456.425C438.284 464.591 430.46 466.721 424.059 469.384C421.037 470.627 418.192 472.402 415.525 474C414.813 473.112 414.28 472.225 413.213 471.515C411.791 470.449 409.479 471.337 407.879 470.272C405.212 468.674 406.457 464.591 406.279 461.928C406.101 459.265 405.745 455.715 403.078 454.472C400.767 453.229 397.922 454.117 395.433 453.762C392.41 453.407 392.055 451.454 392.41 448.791C392.588 447.193 394.722 442.045 393.299 440.625C391.877 439.204 387.609 442.577 386.365 443.11C383.876 444.353 381.742 445.063 379.253 443.465C376.941 442.045 375.163 440.27 372.496 439.914C370.007 439.559 366.806 439.914 365.028 442.222C364.851 442.577 364.673 442.755 364.495 443.11C362.717 442.755 352.582 446.483 350.448 445.95C348.315 445.418 348.67 438.494 346.537 435.121C344.403 431.748 340.847 436.364 339.78 440.98C338.713 445.418 335.513 441.69 331.601 439.382C327.689 437.074 320.577 435.121 317.377 434.589C314.176 434.056 306.531 442.045 306.531 442.045C306.886 439.559 307.242 437.074 305.82 434.944C303.508 431.571 299.063 431.038 297.107 427.31C294.974 423.404 296.218 419.499 298.352 415.948C300.841 411.865 303.686 408.137 303.508 402.988C303.33 398.728 300.308 395.177 299.952 391.094C299.063 382.395 307.775 376.182 315.599 377.424C320.044 378.134 324.311 379.732 328.223 376.714C331.423 374.229 334.268 369.968 336.224 366.24C339.247 360.382 338.713 353.103 342.447 347.599C344.936 343.871 348.137 343.871 351.693 341.919C355.783 339.788 357.561 335.35 358.272 330.912C358.627 328.426 356.316 301.975 356.138 301.975C356.138 301.975 370.007 303.04 373.03 297.181C376.052 291.323 375.163 279.961 384.942 285.464C394.722 290.968 398.1 298.424 402.901 300.022C407.701 301.62 413.391 308.011 423.704 306.413C423.526 306.945 423.17 307.3 423.17 307.833C422.815 309.608 423.704 311.384 424.948 312.626C426.015 313.869 427.615 314.579 428.504 315.999C429.571 317.775 429.216 319.728 428.682 321.503C428.149 323.278 426.549 325.763 427.082 327.716C427.793 329.669 430.282 328.959 431.705 328.426C433.127 327.894 435.439 325.586 437.039 325.941C438.284 326.119 438.639 327.716 438.817 328.781C439.173 329.847 439.528 330.912 439.884 331.977C440.239 333.042 440.239 338.19 442.551 336.593C444.151 335.528 444.862 335.172 446.64 335.172C448.241 334.995 450.019 334.285 451.619 335.172C454.819 336.948 455.886 341.741 457.131 344.937C458.553 348.487 461.754 350.617 462.465 354.701C462.821 356.653 462.643 358.784 461.398 360.382C460.509 361.447 459.264 362.334 458.553 363.4C457.664 364.642 457.309 366.063 456.242 366.95C455.175 367.838 454.286 368.725 453.219 369.791C451.975 371.211 451.085 372.631 450.019 374.229C449.13 375.472 447.707 376.537 447.352 378.134C446.996 379.555 447.707 381.152 447.707 382.75C447.707 384.881 448.063 386.123 449.841 387.366C450.374 387.721 451.086 388.076 451.441 388.786C451.797 389.141 451.797 389.674 452.152 390.029C452.864 390.739 454.642 391.094 455.708 391.449C457.309 391.982 458.731 391.982 459.62 393.757C460.153 395 460.331 396.242 460.331 397.485C460.331 398.373 459.976 399.615 460.509 400.503C461.398 402.278 463.887 403.699 465.665 403.699C468.688 403.699 471.889 401.568 472.778 405.829C473.667 409.557 472.6 413.463 473.133 417.191C473.844 420.919 477.578 422.162 478.823 425.535C479.712 428.198 477.045 429.973 475.445 431.748Z" fill="#01B601" stroke="#181818"/>
<path d="M412.523 532.186C413.408 536.449 411.815 540.002 410.223 543.733C408.985 546.397 407.038 549.062 406.331 551.904C405.623 554.747 405.269 557.944 404.738 560.964C404.384 563.629 404.561 566.293 403.854 568.78C403.5 570.201 402.615 573.399 401.023 573.754C399.077 574.287 396.069 571.445 393.946 571.267C391.469 571.09 390.761 573.399 390.584 575.531C390.23 579.972 393.238 584.946 395.715 588.321C397.838 591.163 398.9 594.538 401.554 596.848C402.792 597.914 403.854 599.335 403.677 601.111C403.677 601.467 402.969 601.644 402.969 601.999C402.969 602.177 403.146 603.065 403.146 603.065C402.261 604.842 397.661 605.375 395.715 605.552C392.884 606.085 390.053 606.618 387.753 604.131C386.692 603.065 385.807 601.644 384.215 602.532C382.623 603.421 382.623 604.309 380.5 604.486C377.138 604.842 373.599 603.598 370.769 601.999C367.407 600.045 364.045 597.558 359.799 598.447C354.315 599.512 350.953 594.716 345.822 594.361C343.522 594.183 341.93 595.249 339.807 595.427C338.214 595.604 337.86 595.071 336.799 593.828C335.56 592.584 334.322 591.874 333.083 591.341C333.614 589.032 334.499 586.189 333.968 583.88C333.437 581.571 331.845 579.616 330.253 577.84C327.068 574.465 322.291 572.155 320.522 567.714C317.868 561.319 326.006 561.675 329.899 561.319C331.845 561.142 334.499 560.076 335.56 558.299C336.976 555.99 334.145 555.457 332.376 554.924C326.183 552.793 334.499 548.529 332.376 544.443C331.314 542.312 329.191 540.713 329.014 538.048C328.837 535.561 330.607 534.495 332.73 535.739C335.207 537.16 336.091 539.825 338.037 541.779C339.807 543.733 342.107 543.377 344.407 543.2C346.884 542.845 349.184 542.667 351.661 543.2C353.607 543.555 356.615 544.621 358.03 542.489C359.268 540.535 358.207 537.693 358.03 535.739C357.676 533.252 358.738 531.653 360.153 529.521C361.922 526.857 359.622 525.08 359.622 522.238C359.622 519.573 363.161 519.04 362.984 516.553C362.807 515.132 361.568 513.711 360.861 512.468C359.976 511.047 359.268 509.27 359.268 507.494C359.268 504.474 361.038 502.342 364.045 502.342C366.522 502.164 380.323 505.362 379.084 499.855C378.73 498.256 376.784 496.48 375.369 495.592C373.776 494.526 372.715 494.881 370.946 495.414C369.176 495.947 368.115 496.125 366.876 494.703C365.815 493.638 365.461 492.572 363.692 492.572C363.692 493.638 364.399 497.19 362.453 495.947C360.684 494.881 361.568 492.039 360.861 490.44C360.33 488.841 358.207 488.308 357.499 486.887C356.615 485.288 358.03 481.913 359.445 480.67C361.745 478.538 364.93 479.426 367.407 477.472C368.292 476.762 369.707 475.341 368.115 474.63C366.169 473.919 363.869 474.63 361.922 473.386C360.507 472.321 359.976 470.367 361.569 469.301C363.161 468.412 373.069 469.656 372.892 466.991C372.715 465.393 367.584 464.504 366.522 464.149C364.399 463.261 360.507 461.84 360.153 458.997C359.976 457.043 361.922 456.333 363.161 455.089C364.753 453.491 364.222 451.359 364.045 449.405C363.692 447.095 363.161 444.431 364.222 442.299C364.399 441.944 364.576 441.766 364.753 441.411C366.345 439.279 369.53 438.746 372.184 439.101C375.015 439.634 376.784 441.233 378.907 442.654C381.207 444.253 383.507 443.543 385.984 442.299C387.223 441.588 391.469 438.391 392.884 439.812C394.3 441.233 392.354 446.207 392 447.984C391.646 450.648 392 452.602 395.007 452.958C397.484 453.135 400.315 452.425 402.615 453.668C405.269 455.089 405.623 458.642 405.8 461.129C405.977 463.794 404.738 467.879 407.392 469.478C408.985 470.544 411.285 469.656 412.7 470.722C413.585 471.432 414.292 472.321 415 473.209C413.231 474.275 411.285 475.34 409.338 476.229C404.738 478.183 397.131 480.314 400.315 486.532C401.554 489.019 403.677 491.328 403.146 494.171C402.615 497.546 399.431 499.677 396.954 501.809C395.007 503.408 391.292 505.007 391.823 508.027C392.354 510.514 394.477 512.468 396.6 513.534C398.9 514.599 400.846 515.132 402.615 517.086C404.208 518.863 404.915 521.172 405.8 523.304C407.215 527.923 411.638 528.1 412.523 532.186Z" fill="#01B601" stroke="#181818"/>
<path d="M357.926 331.422C357.215 335.686 355.44 340.305 351.355 342.437C347.804 344.214 344.607 344.392 342.121 348.123C338.392 353.63 338.925 360.915 335.906 366.778C334.13 370.331 331.289 374.773 327.915 377.26C324.008 380.281 319.746 378.682 315.306 377.971C307.493 376.727 298.791 382.946 299.679 391.651C300.034 395.915 303.053 399.291 303.231 403.555C303.408 408.708 300.567 412.439 298.081 416.525C295.772 420.078 294.707 423.987 296.838 427.896C298.791 431.627 303.231 432.16 305.539 435.535C306.96 437.667 306.605 440.155 306.25 442.642C305.895 444.952 305.539 447.262 306.605 449.038C308.913 452.592 314.596 447.617 317.97 449.038C325.428 452.059 308.026 467.871 304.119 469.648C300.39 471.247 296.128 470.891 292.221 472.313C287.604 474.089 283.519 479.242 278.547 479.952C274.818 480.485 272.332 476.399 269.135 474.8C264.873 472.846 261.499 473.201 261.144 467.516C260.967 464.673 261.322 461.83 261.144 458.988C260.967 457.566 260.789 455.79 260.079 454.546C259.368 453.48 258.303 453.48 257.06 453.125C255.284 452.592 251.733 451.17 249.957 452.592C249.779 452.592 249.779 452.769 249.779 452.947C248.714 448.505 250.134 445.13 249.602 441.221C248.714 435.713 242.143 439.622 240.012 439.799C237.881 439.799 235.75 439.622 233.087 441.043C230.6 442.464 226.871 438.911 224.385 438.556C221.899 438.023 218.88 440.155 218.88 440.155C218.88 439.799 218.703 439.444 218.703 439.089C217.992 436.424 215.506 435.713 213.375 434.292C211.599 433.048 209.824 431.094 208.403 429.139C208.048 428.606 207.693 428.251 207.337 427.718C204.851 423.632 208.225 424.342 210.179 421.322C211.599 419.368 212.31 415.637 212.665 413.327C208.403 410.484 202.898 407.286 201.655 401.956C200.412 396.981 203.431 391.829 205.562 387.565C207.693 383.123 210.356 377.971 208.936 372.819C207.693 368.022 203.431 365.001 199.701 362.159C196.327 359.494 192.953 356.829 192.065 352.387C191 347.412 191.888 342.26 191 337.285C192.065 338.173 192.953 339.772 193.664 340.661C194.907 342.26 195.617 342.26 197.57 342.793C201.3 344.036 203.608 350.965 207.87 345.635C210.356 342.615 208.936 337.818 206.627 335.153C203.075 330.889 195.972 327.513 195.972 321.117C195.972 315.61 202.365 311.523 207.16 313.477C210.356 314.721 212.487 317.742 215.506 319.163C217.992 320.407 220.656 319.874 223.497 319.696C230.245 319.163 232.199 321.828 236.105 327.158C237.348 328.935 239.124 332.133 241.078 333.199C244.097 334.62 245.517 332.31 247.471 330.356C249.957 327.869 250.667 328.046 253.508 330.001C255.639 331.422 257.593 333.199 259.013 330.001C260.256 327.158 258.658 323.96 260.434 321.117C261.677 318.808 264.163 317.209 265.761 315.077C267.182 313.122 268.425 310.102 271.089 309.924C274.285 309.746 275.528 313.3 277.837 314.366C282.276 316.32 283.519 309.924 286.006 307.437C290.09 303.706 295.062 300.863 299.502 297.665C300.745 296.777 301.633 295.888 302.343 295C305.539 297.31 308.913 299.086 312.287 301.218C316.017 303.35 319.391 306.371 323.297 307.97C334.13 312.589 344.785 304.416 355.439 302.64C355.972 302.462 358.458 328.757 357.926 331.422Z" fill="#01B601" stroke="#181818"/>
<path d="M205 560.27C203.396 560.093 202.505 563.1 201.971 564.161C201.08 566.283 199.832 568.406 197.872 569.82C195.199 571.766 192.883 574.065 190.566 576.541C188.428 578.663 186.112 578.133 183.439 577.072C179.697 575.657 176.133 573.358 172.569 571.766C169.184 570.351 167.402 571.235 164.551 573.181C162.056 575.126 159.561 574.772 156.71 573.888C153.503 573.004 150.83 573.181 147.622 573.358C147.266 573.358 146.91 573.358 146.553 573.358C146.553 573.181 146.553 573.004 146.375 573.004C145.484 569.997 145.84 566.991 145.128 563.984C144.771 562.039 144.059 559.917 143.88 557.971C143.702 556.556 144.058 555.141 144.058 553.727C144.058 550.72 142.989 546.652 141.386 544C140.495 542.408 139.247 540.816 138 539.225C140.495 536.395 143.168 533.919 146.019 531.797C149.404 529.321 152.434 528.613 156.532 528.436C158.136 528.436 160.274 528.436 162.056 527.906C162.056 527.906 161.699 530.205 165.441 529.321C169.184 528.613 174.529 524.369 177.202 529.498C179.697 534.626 175.242 541.17 177.202 544.353C179.162 547.537 184.152 553.373 190.388 553.727C196.981 554.257 204.822 553.55 205 560.27Z" fill="#01B601" stroke="#181818"/>
<path d="M182.459 626C181.383 624.573 180.485 623.147 179.588 621.542C178.332 619.045 177.974 616.37 177.077 613.695C176.718 612.804 176.359 611.733 176 610.664C178.512 610.664 181.024 611.555 183.715 611.555C188.38 611.733 190.892 608.702 191.609 604.422C192.327 600.32 192.327 595.862 191.609 591.76C190.892 587.48 191.251 583.557 195.736 581.595C200.76 579.455 203.092 583.557 206.322 586.41C207.398 587.302 208.475 588.015 209.731 588.372C210.269 589.264 229.287 607.275 182.459 626Z" stroke="#212121"/>
<path d="M45.6635 230.827C43.347 228.173 40.8524 225.518 37.6449 223.925C34.9721 222.687 32.1211 221.979 29.4482 220.563C26.2408 218.793 20.0041 211.361 16.9749 217.201C15.3712 220.209 17.5095 223.217 19.6478 225.164C21.6078 226.934 26.2408 229.057 26.2408 232.066C26.2408 234.897 22.677 236.844 21.2515 238.968C19.6477 241.445 21.2515 243.038 22.677 245.161C25.8844 249.763 23.5679 256.664 18.044 258.611C13.2329 260.204 7.8872 257.726 3.96702 261.973C2.36331 263.566 0.937791 266.043 0.22503 268.167C-0.48773 270.468 0.581411 272.06 2.18512 274.007C3.96702 276.131 5.21435 278.077 6.1053 280.732C7.35263 284.094 8.95634 286.572 12.1638 288.164C13.7675 289.049 15.7276 289.58 17.3313 290.642C20.0041 292.235 22.677 293.119 25.8844 293.473C29.9828 294.004 32.8338 295.597 36.0412 298.251C38.7141 300.375 41.9215 302.145 44.5944 304.091C46.0199 304.976 46.7326 306.392 48.5145 306.392C50.6528 306.569 52.7911 306.215 54.9294 305.861C56.8895 305.684 59.7405 304.976 61.5224 306.392C65.4426 309.4 61.166 316.656 63.1261 320.549C64.0171 322.319 66.1554 322.85 67.7591 323.381C70.0755 324.266 72.0356 325.504 73.9957 326.92C77.9159 329.751 81.6579 331.344 86.1126 328.513C89.1419 326.743 92.5275 323.912 94.3094 320.726C96.9822 315.771 91.2802 314.532 87.7164 313.117C85.7563 312.232 83.9744 311.347 82.9052 309.223C82.1925 307.631 82.1925 305.507 81.1233 303.914C79.1632 300.552 74.3521 300.729 75.4213 295.951C75.9558 293.827 77.2031 292.235 77.5595 289.934C77.9159 286.926 78.2723 284.271 79.876 281.617C81.6579 278.608 83.2616 275.6 84.6871 272.237C85.3999 270.645 93.2403 259.142 87.1818 260.204C84.5089 260.734 82.5488 263.743 81.1233 265.689C79.1632 268.344 77.5595 271.176 76.4904 274.361C75.4212 277.546 75.4212 280.732 74.3521 283.917C73.283 287.103 71.5011 289.757 69.7192 292.588C68.4718 294.358 66.5117 298.251 64.1953 298.959C61.7006 299.844 61.7006 295.42 61.7006 293.827C61.5224 291.881 60.2751 288.872 61.3442 286.926C62.4134 284.625 65.799 283.917 67.7591 282.855C70.6101 281.263 70.9665 278.608 71.8574 275.777C72.7484 272.414 74.1739 269.406 75.4213 266.22C76.4904 263.389 75.9558 260.204 75.7776 257.195C75.5994 253.833 75.4212 250.293 75.5994 246.931C75.7776 243.569 75.7776 240.206 75.9558 236.844C75.9558 234.897 76.4904 232.243 75.0649 230.827C73.1048 228.88 69.1846 228.88 66.6899 228.526C62.9479 227.819 63.3043 230.827 61.7006 233.305C59.9187 236.136 56.7113 237.552 53.6821 236.667C50.1183 235.959 47.8018 233.482 45.6635 230.827Z" fill="#01B601" stroke="#181818"/>
<path d="M448.946 183.798C445.053 181.302 443.992 189.326 443.815 193.426C443.638 197.884 427.89 199.31 420.813 204.124C413.735 208.938 416.566 218.744 417.451 225.519C418.336 232.295 407.366 238 407.366 238C403.827 232.829 395.688 225.519 393.387 224.271C390.026 222.31 389.849 215.713 390.733 211.256C391.618 206.798 383.302 199.667 379.409 192.178C375.694 184.69 367.908 184.333 367.555 184.333C366.847 181.659 363.308 178.806 361.539 177.558C360.477 176.667 359.239 175.953 358 175.062C358 175.062 373.217 169.178 375.694 164.364C378.171 159.55 379.232 154.736 384.718 151.884C388.61 149.744 395.334 149.209 397.457 146C397.457 146 411.258 168.643 415.859 163.829C420.459 159.016 425.413 154.38 431.429 153.31C436.206 152.419 438.153 152.419 438.33 154.202C438.33 154.736 438.33 155.271 438.153 155.984C437.445 159.372 434.26 170.07 439.214 171.14C444.345 171.674 453.015 169.891 448.946 183.798Z" fill="#01B601" stroke="#181818"/>
<path d="M492 213.049C492 213.939 491.822 214.652 491.112 215.364C488.092 218.749 484.717 219.818 485.428 224.093C486.138 228.546 487.914 240.659 483.829 243.33C479.566 246.002 476.191 249.565 476.901 254.196C477.612 258.828 481.342 274.681 466.066 275.037C465.888 274.859 465.888 274.681 465.711 274.503C464.467 273.078 462.336 273.434 460.737 273.968C457.184 275.215 455.053 277.709 452.211 280.025C448.658 282.875 444.395 283.944 439.954 284.834C436.579 285.547 432.849 286.972 430.895 290C432.138 280.737 410.645 260.253 405.316 256.156C399.987 252.237 405.138 245.112 407.98 242.44C408.869 241.549 408.158 239.946 406.737 237.63C406.737 237.63 417.75 231.93 416.862 225.161C415.974 218.393 413.132 208.596 420.237 203.786C427.342 198.798 443.151 197.552 443.329 193.098C443.507 188.823 444.395 180.986 448.48 183.479C448.658 183.658 449.013 183.836 449.191 184.014C453.809 187.933 453.632 191.851 456.118 190.248C458.605 188.645 470.329 189.714 467.842 196.483C465.355 203.074 462.868 206.992 469.974 205.033C477.079 202.895 480.632 200.402 484.717 203.43C488.092 206.102 492 209.842 492 213.049Z" fill="#01B601" stroke="#181818"/>
<path d="M398.262 146.029C396.121 149.228 389.341 149.761 385.415 151.894C379.884 154.738 378.813 159.537 376.315 164.336C373.817 169.135 358.471 175 358.471 175C354.903 172.867 350.799 170.912 347.944 167.89C344.197 164.158 345.446 159.004 346.516 154.382C348.479 146.562 353.832 133.765 346.338 127.189C343.661 124.878 339.914 123.989 337.059 122.212C333.669 120.079 333.847 118.479 334.74 114.747C335.81 111.014 335.81 108.171 331.528 107.282C326.888 106.393 326.175 105.504 323.141 101.95C322.427 101.061 321.714 100.528 321 100.172C323.677 90.5745 329.03 92.8851 332.063 92.3519C335.096 91.8186 334.918 90.0413 335.275 84.5314C335.632 78.8438 345.267 87.3752 350.263 87.9084C354.724 88.4416 357.758 80.6212 362.04 76C362.04 76 374.174 81.8653 377.386 82.5763C380.597 83.2872 380.24 89.3303 384.344 92.1741C384.88 92.5296 385.415 93.2405 385.594 93.9515C387.556 98.9282 384.88 110.481 384.88 116.346C384.88 123.101 394.694 132.698 398.262 140.874C399.333 143.185 399.155 144.785 398.262 146.029Z" fill="#01B601" stroke="#181818"/>
<path d="M566.333 319.183C567.4 325.742 565.088 326.451 562.242 329.464C559.395 332.478 556.015 332.478 553.703 331.946C551.39 331.414 543.029 344 543.029 344C542.673 342.936 542.14 342.05 541.784 340.986C541.25 339.923 540.716 338.682 540.005 337.796C539.115 336.555 537.87 335.668 536.981 334.605C535.38 332.832 534.312 329.996 532.177 328.755C530.043 327.514 526.307 330.882 524.528 331.946C522.037 333.541 516.701 333.187 515.633 329.996C515.1 328.223 514.922 326.451 514.388 324.678C513.854 323.083 512.431 321.842 511.008 320.955C509.585 320.069 507.806 319.36 506.027 319.005C504.07 318.651 502.113 319.183 500.334 319.183C497.132 319.005 495.175 315.637 494.998 312.624C494.82 310.851 494.464 308.901 493.574 307.306C492.685 305.888 491.44 303.76 490.017 302.697C488.593 301.811 487.17 302.165 485.747 302.874C484.324 303.583 483.434 303.583 481.833 302.874C478.453 301.279 476.319 298.62 473.472 296.315C471.338 294.72 469.203 291.529 466.712 290.82C465.111 290.466 463.688 291.529 462.265 290.997C460.842 290.288 460.842 288.87 461.198 287.452C462.087 284.438 464.222 282.311 465.467 279.652C466.179 278.234 467.068 276.284 466.179 274.689C481.3 274.157 477.742 258.558 477.03 253.949C476.319 249.34 479.699 245.794 483.968 243.135C488.238 240.476 486.459 228.245 485.569 223.991C484.858 219.736 488.238 218.673 491.262 215.304C491.973 214.595 492.151 213.886 492.151 213C493.93 217.786 497.488 221.332 501.224 224.7C503.359 226.472 505.315 228.245 507.094 230.018C512.075 234.981 518.124 236.222 522.927 239.058C527.908 241.717 527.73 250.403 527.908 255.012C528.086 259.444 533.779 264.939 536.803 266.712C539.827 268.484 540.361 264.585 541.962 263.344C543.563 262.103 546.409 264.053 549.077 265.294C551.568 266.534 550.678 269.725 549.789 274.512C548.899 279.298 548.9 278.234 552.635 281.248C556.371 284.261 560.463 282.843 564.554 282.134C564.91 282.134 565.266 282.134 565.444 282.134H565.622H565.799C565.977 282.134 565.977 282.134 566.155 282.134C566.333 282.134 566.333 282.134 566.511 282.311C566.689 282.311 566.689 282.488 566.867 282.488C567.045 282.666 567.4 282.843 567.578 283.02C567.756 283.198 567.934 283.198 568.112 283.375C568.29 283.552 568.468 283.552 568.468 283.729C568.646 283.907 568.646 283.907 568.824 284.084C569.002 284.261 569.179 284.438 569.357 284.793C569.357 284.97 569.535 284.97 569.535 285.147C569.713 285.502 570.069 285.857 570.247 286.211C571.314 287.984 572.204 290.111 572.737 292.238C574.16 297.024 569.535 296.67 565.266 298.265C561.174 299.506 565.266 312.624 566.333 319.183Z" fill="#01B601" stroke="#181818"/>
<path d="M459.105 118.463C457.165 121.12 455.05 123.247 453.463 125.55C452.405 126.967 451.524 128.385 450.819 130.334C449.056 135.118 444.295 149.293 437.948 153.722C437.772 151.951 435.657 152.128 431.073 152.837C425.255 153.9 420.142 158.506 415.558 163.29C410.974 168.252 397.223 145.572 397.223 145.572C398.104 144.332 398.104 142.737 397.223 140.434C393.697 132.283 384 122.715 384 115.982C384 110.312 386.645 98.6179 384.705 93.6567C384.705 93.6567 391.581 82.8485 396.517 84.2659C401.454 85.8606 404.098 88.164 405.861 84.0887C407.625 80.0135 408.33 76.8242 413.266 78.4189C418.026 80.1907 421.2 78.9504 426.665 81.9625C432.131 84.9747 434.599 88.164 441.475 88.3412C443.766 88.3412 445.882 88.3412 447.821 88.3412C451.7 88.5183 454.345 89.2271 452.934 92.4164C450.819 97.2004 447.821 99.5038 452.229 101.63C456.637 103.933 460.163 102.339 460.515 107.3C460.691 112.438 462.102 113.856 459.105 118.463Z" fill="#01B601" stroke="#181818"/>
<path d="M461.195 65.3656C456.592 75.7942 447.564 84.4552 447.741 88.6973C445.794 88.6973 443.492 88.6973 441.368 88.6973C434.641 88.5206 431.986 85.5157 426.498 82.3341C421.011 79.3293 417.824 80.3898 413.045 78.799C408.265 77.0315 407.38 80.3898 405.61 84.4552C403.839 88.5206 401.184 86.2228 396.227 84.632C391.271 83.0412 384.367 94 384.367 94C384.013 93.293 383.659 92.586 383.128 92.2324C379.056 89.4044 379.41 83.3947 376.224 82.6877C373.038 81.9806 361 76.1477 361 76.1477C361.531 75.4407 362.062 74.9104 362.77 74.3801C368.081 70.138 365.426 68.017 362.416 63.4213C359.407 58.8257 364.54 53.3463 368.612 48.5739C372.683 43.8015 366.842 30.1913 366.665 29.8378C369.32 28.954 371.798 27.3632 374.454 25.4189C376.755 23.8281 379.41 21 382.42 21C385.606 21 387.553 24.0048 389.147 26.3027C393.749 32.6659 398.883 40.2663 407.734 38.6755C410.92 38.1453 414.284 37.0848 417.47 36.0242C417.824 35.8475 416.939 39.3826 424.374 36.7312C431.809 34.2567 435.703 30.0145 441.191 33.0194C446.679 36.0242 441.899 41.1501 445.617 45.2155C449.334 49.4576 465.797 54.9371 461.195 65.3656Z" fill="#01B601" stroke="#181818"/>
<path d="M537.644 53.4226C537.644 53.5994 537.644 53.7763 537.467 53.7763C537.467 53.9531 537.467 53.9531 537.289 54.13C537.289 54.3068 537.111 54.4836 537.111 54.6605C537.111 54.8373 536.933 55.0141 536.756 55.191C536.756 55.3678 536.578 55.3678 536.578 55.5447C536.4 55.7215 536.4 55.8983 536.222 56.0751C535.867 56.4288 535.689 56.7825 535.333 57.1362C535.156 57.313 534.978 57.6667 534.622 57.8435C533.2 59.2582 531.6 60.4961 530.178 61.734C529.644 62.2645 528.933 62.795 528.4 63.1487C523.956 67.0391 523.067 65.2708 518.089 67.7465C513.289 70.2223 514.533 73.759 515.422 78.3568C516.311 82.9546 514.533 82.9547 510.267 86.4914C506 90.0282 507.244 91.7966 510.8 97.1018C514.356 102.407 507.6 104.352 511.689 109.304C515.778 114.255 517.733 106.828 522.711 106.828C527.689 106.828 523.956 108.773 522.533 111.426C521.111 114.078 521.467 114.078 523.067 119.56C524.489 123.981 520.222 130.524 518.444 133C512.933 129.286 510.089 123.804 506.889 126.28C503.511 128.933 502.444 130.701 497.822 130.524C493.022 130.347 490.533 129.463 484.667 125.75C478.8 122.036 471.689 117.085 469.2 121.152C466.711 125.042 465.289 138.482 454.089 125.75C455.867 123.451 458 121.506 459.778 118.676C462.8 114.255 461.556 112.664 461.2 107.712C460.844 102.761 457.289 104.352 452.844 102.053C448.4 99.7543 451.422 97.6323 453.556 92.8576C454.978 89.6745 452.311 88.9672 448.4 88.7903C448.222 84.5462 457.289 75.8811 461.911 65.4476C466.533 55.0141 450 49.5321 446.267 45.4648C442.533 41.3975 447.333 36.2692 441.822 33.263C436.311 30.2567 432.4 34.5008 424.933 36.9766C417.467 39.4523 418.356 36.0924 418 36.2692C421.733 35.0314 425.467 33.4398 428.844 32.2019C435.244 29.7262 440.756 25.4821 446.978 22.8295C452.667 20.5306 461.378 18.2317 459.6 10.4508C459.422 9.56658 459.067 8.50554 458.711 7.62134C463.156 7.26766 467.067 10.0971 470.8 11.335C474.889 12.5728 480.756 7.09084 485.022 5.14561C489.289 3.37722 485.2 18.2317 483.956 21.7684C482.711 25.3052 490.889 28.6652 495.156 28.4883C499.422 28.3115 501.733 31.1409 507.6 34.6777C513.467 38.2144 514.889 36.2692 519.689 39.2755C524.489 42.2817 529.467 47.4101 535.689 50.2395C536.4 50.5932 536.933 50.9469 537.289 51.3005L537.467 51.4774L537.644 51.6542C537.644 51.831 537.822 51.831 537.822 52.0079C537.822 52.1847 537.822 52.1847 538 52.3616C537.644 52.8921 537.644 53.2457 537.644 53.4226Z" fill="#01B601" stroke="#212121"/>
<path d="M666 343.808C664.578 342.744 661.023 350.367 656.757 352.139C651.78 354.266 647.87 357.812 645.559 361.534C643.071 365.257 636.316 363.662 633.828 356.571C631.517 349.48 608.588 349.835 620.142 367.561C631.695 385.288 618.364 369.157 617.298 371.816C616.053 374.475 618.186 362.421 611.432 364.902C604.678 367.384 618.009 352.848 622.275 347.885C626.54 343.099 620.853 344.162 619.253 343.985C617.653 343.808 615.52 341.326 612.321 339.022C609.121 336.717 604.855 342.212 603.789 345.935C602.723 349.48 600.767 346.112 600.767 342.921C600.767 339.731 598.634 339.376 592.769 339.022C586.903 338.844 582.993 350.012 582.282 355.507C581.749 361.003 583.348 362.598 586.37 364.725C589.392 366.675 585.659 366.32 582.46 367.739C579.26 368.979 579.26 370.752 579.26 370.752C579.26 370.22 579.26 369.511 579.082 368.979C579.082 368.802 579.082 368.802 579.082 368.625C579.082 368.448 578.905 368.093 578.905 367.916C578.905 367.916 578.905 367.739 578.727 367.739C578.727 367.561 578.549 367.561 578.549 367.384C578.549 367.207 578.371 367.207 578.371 367.03C578.194 366.852 578.016 366.498 577.838 366.32C575.527 363.839 571.617 364.193 568.773 362.775C566.818 361.889 565.218 360.471 564.329 358.521C563.619 357.103 563.263 355.153 561.486 354.798C559.708 354.266 558.108 355.685 556.509 356.394C554.731 357.103 553.309 356.925 551.532 356.039C549.221 354.798 547.088 353.38 546.022 351.076C544.777 348.594 544.066 345.935 543 343.453C543 343.453 551.354 331.045 553.665 331.399C555.975 331.931 559.353 332.108 562.197 328.917C565.04 325.904 567.351 325.018 566.285 318.636C565.218 312.077 561.13 298.959 565.396 297.364C569.662 295.769 574.283 296.123 572.861 291.337C572.328 289.387 571.439 287.083 570.373 285.31C570.906 285.487 583.526 289.564 591.88 289.919C594.724 290.096 597.035 289.742 598.279 288.855C603.078 284.955 609.477 276.092 610.366 281.942C610.721 284.246 610.721 287.083 610.899 289.919C611.077 294.705 611.61 298.959 614.098 299.137C618.186 299.314 623.697 298.959 624.763 302.682C625.83 306.405 624.585 310.482 629.562 310.482C634.539 310.482 636.85 309.773 639.338 312.963C641.827 316.154 641.471 321.295 645.559 317.395C649.647 313.495 651.78 310.836 655.869 309.95C659.957 309.064 653.736 318.991 658.535 320.409C663.334 321.827 666.533 324.84 663.689 327.322C661.023 329.626 661.734 339.731 666 343.808Z" fill="#01B601" stroke="#181818"/>
<path d="M789.982 326.633C784.306 329.654 773.663 332.319 777.21 335.694C780.758 339.07 787.321 341.38 782.354 346.177C777.388 350.974 779.516 351.151 780.403 354.527C780.403 354.705 780.403 354.882 780.581 355.06C780.581 355.238 780.758 355.593 780.758 355.948C780.758 356.126 780.758 356.481 780.935 356.837C780.935 357.014 780.935 357.37 781.113 357.547C781.113 357.725 781.113 357.903 781.113 358.08C781.113 358.258 781.113 358.613 781.113 358.969C781.113 359.679 781.29 360.39 781.29 361.101C781.29 361.278 781.29 361.634 781.29 361.811C781.29 361.989 781.29 361.989 781.29 362.167C781.29 362.522 781.29 362.877 781.29 363.41C781.29 363.766 781.29 364.121 781.29 364.476C781.29 365.009 781.29 365.72 781.29 366.253C781.29 366.431 781.29 366.786 781.29 366.964C781.113 369.984 780.758 373.005 779.694 375.137C779.516 375.314 779.516 375.492 779.339 375.67C779.162 375.847 779.162 376.025 778.984 376.203C778.807 376.38 778.807 376.558 778.629 376.736C778.452 376.913 778.275 377.091 778.275 377.269C778.275 377.269 778.097 377.269 778.097 377.446C777.742 377.802 777.388 377.979 776.856 378.157C776.678 378.335 776.323 378.335 776.146 378.335C775.791 378.335 775.614 378.335 775.259 378.512C766.745 378.69 757.698 384.375 754.328 381.71C750.957 379.045 741.024 373.893 742.443 379.756C744.039 385.797 749.006 396.279 740.314 401.076C731.8 405.695 728.074 407.65 721.334 416C720.624 414.579 718.85 413.868 717.254 412.98C714.771 411.736 713.351 410.315 714.238 407.472C714.948 405.34 716.012 404.096 713.884 402.32C711.4 400.365 708.562 399.122 706.256 396.99C704.837 395.746 703.773 394.858 702.531 395.035C703.95 389.883 700.402 386.863 697.564 384.731C694.726 382.421 695.258 377.624 695.79 374.604C696.322 371.583 695.081 370.34 692.775 368.208C690.469 366.076 691.71 365.01 690.291 361.456C688.872 357.903 684.083 356.837 677.52 357.014C670.956 357.192 667.054 348.664 666.167 344.933C666.167 344.578 665.99 344.4 665.812 344.222C665.812 344.222 665.812 344.222 665.635 344.045C661.555 339.781 660.845 329.831 663.684 327.522C666.522 325.034 663.329 322.192 658.539 320.593C653.927 319.171 659.958 309.222 655.879 310.11C651.799 310.999 649.67 313.664 645.59 317.572C641.51 321.481 641.865 316.506 639.382 313.131C636.898 309.933 634.415 310.643 629.625 310.643C624.659 310.643 625.9 306.557 624.836 302.826C623.772 299.095 618.095 299.45 614.193 299.273C611.71 299.095 611.177 294.831 611 290.034C611 290.034 614.193 286.125 618.095 285.948C621.998 285.77 626.078 284.526 625.546 287.902C625.191 291.455 625.368 294.831 629.803 291.811C634.238 288.79 648.428 283.46 647.896 279.019C647.364 274.755 643.462 272.267 644.171 269.247C644.881 266.226 646.655 266.76 650.38 265.16C653.573 263.739 665.28 265.161 667.054 262.673C669.537 263.562 678.939 267.115 685.147 266.582C692.243 265.871 705.369 258.942 706.611 261.607C707.675 264.272 708.207 267.47 711.046 266.759C713.884 266.049 717.786 263.917 717.786 266.937C717.786 269.78 717.077 273.511 720.624 272.267C722.576 271.557 725.591 270.846 727.897 269.425C727.897 269.425 735.347 277.775 732.864 280.44C730.381 283.105 728.252 285.059 729.139 288.08C730.026 290.922 735.879 290.745 733.396 294.476C730.913 298.207 727.542 300.872 729.848 304.247C731.622 306.912 738.008 309.4 739.605 311.354C739.959 312.065 739.959 312.598 739.25 313.131C736.234 315.44 733.928 317.75 737.476 319.527C741.201 321.126 738.008 329.831 741.733 330.009C745.458 330.187 759.827 327.166 758.407 331.253C757.166 335.517 759.117 338.892 761.068 337.471C763.019 336.05 767.631 335.872 766.567 331.786C765.503 327.699 761.955 324.679 767.454 324.501C772.953 324.146 774.904 325.39 776.146 322.369C777.388 319.349 779.339 314.374 783.419 316.329C788.031 318.283 795.658 323.613 789.982 326.633Z" fill="#01B601" stroke="#181818"/>
<path d="M109.348 407.327V375.49L118.87 367L143.203 375.49L170.71 397.776L176 423.245L170.71 451.898L151.667 464.633H130.507L109.348 471L103 464.633V440.224L109.348 407.327Z" fill="#01B601"/>
</g>
<defs>
<filter id="filter0_i_1_96" x="-0.5" y="0.499634" width="793" height="630.106" filterUnits="userSpaceOnUse" color-interpolation-filters="sRGB">
<feFlood flood-opacity="0" result="BackgroundImageFix"/>
<feBlend mode="normal" in="SourceGraphic" in2="BackgroundImageFix" result="shape"/>
<feColorMatrix in="SourceAlpha" type="matrix" values="0 0 0 0 0 0 0 0 0 0 0 0 0 0 0 0 0 0 127 0" result="hardAlpha"/>
<feOffset dy="4"/>
<feGaussianBlur stdDeviation="2"/>
<feComposite in2="hardAlpha" operator="arithmetic" k2="-1" k3="1"/>
<feColorMatrix type="matrix" values="0 0 0 0 0 0 0 0 0 0 0 0 0 0 0 0 0 0 0.25 0"/>
<feBlend mode="normal" in2="shape" result="effect1_innerShadow_1_96"/>
</filter>
</defs>
</svg>
